<svg width="28" height="36" viewBox="0 0 28 36" fill="none" xmlns="http://www.w3.org/2000/svg">
<g opacity="0.9">
<path d="M26.9957 33.5942C26.6327 34.3732 25.7066 34.7098 24.9276 34.3468C24.6853 34.2336 24.4861 34.066 24.3366 33.8652L24.2853 33.7912L20.2721 28.0601L18.1171 24.9828L16.5909 22.8015L16.5275 22.7109L16.0415 22.0165L9.65063 12.8895L24.5729 0.368307L24.597 0.348683C25.0461 -0.0151266 25.6809 -0.114005 26.2387 0.146398C26.7995 0.408311 27.1316 0.960819 27.1392 1.54125V21.0451V22.298V24.1933V32.8387C27.1392 32.8447 27.1392 32.8515 27.1392 32.8583V33.0183V33.0229C27.1286 33.2153 27.0818 33.4078 26.995 33.5935L26.9957 33.5942Z" fill="#003355"/>
</g>
<g opacity="0.7">
<path d="M16.5275 22.7152C16.378 22.5167 16.1795 22.3514 15.938 22.2389C15.7002 22.128 15.4481 22.0819 15.2028 22.0932H15.1945L15.1915 22.094C15.1545 22.0955 15.1191 22.0985 15.0821 22.1038H15.0768L12.4328 22.3363L8.6905 22.6631L1.76151 23.2692H1.75774L1.63697 23.2798H1.63546C1.39166 23.2911 1.14183 23.2451 0.904821 23.1341C0.120592 22.768 -0.21831 21.8374 0.147009 21.0524C0.230036 20.875 0.340991 20.7203 0.473834 20.592L0.476854 20.5897L0.65272 20.4418H0.653475L7.23903 14.9152L8.69125 13.6977L9.65135 12.8923L16.0422 22.0193L16.5283 22.7137L16.5275 22.7152Z" fill="#003355"/>
</g>
<path d="M17.1789 30.4677C17.0875 30.6632 16.9615 30.8308 16.8113 30.9674L16.7486 31.0202L16.7441 31.024L11.3051 35.5882L11.2039 35.6727C10.7579 36.0192 10.1374 36.1098 9.5902 35.8539C9.05429 35.6041 8.72596 35.087 8.69275 34.5353V34.5247V34.453V34.3519V27.2764V27.1942V27.1828V27.1783C8.7003 26.976 8.74709 26.7722 8.83842 26.5767C9.06788 26.0846 9.52226 25.7684 10.0227 25.6944H10.0257L10.2152 25.677L13.5815 25.3819L13.6578 25.3759C13.9084 25.36 14.1673 25.4053 14.411 25.5185C14.6548 25.6317 14.8556 25.8016 15.0043 26.0039L15.0481 26.0658L16.9872 28.8343L16.9902 28.8389L17.0966 28.9921L17.1041 29.0034C17.3623 29.4336 17.4083 29.9793 17.1811 30.4677H17.1789Z" fill="#F07F2D"/>
</svg>
